# xmcd
#
# Track frame offsets: 
#        150
#        13278
#        29062
#        46939
#        60134
#        76602
#        94442
#        116316
#        132406
#        147276
#        164989
#        177986
#        181285
#
# Disc length: 2636 seconds
#
# Revision: 0
# Processed by: cddbd v1.5.2PL0 Copyright (c) Steve Scherf et al.
# Submitted via: ExactAudioCopyFreeDBPlugin 1.0
#
DISCID=b10a4a0d
DTITLE=Po'Boy - Zoolectro
DYEAR=2018
DGENRE=World
TTITLE0=Waltz
TTITLE1=Lunettes
TTITLE2=Physical Love
TTITLE3=Who Dat People
TTITLE4=Conmigo
TTITLE5=Pillow Talk
TTITLE6=Sorrow Tears And Blood
TTITLE7=No Worries No War
TTITLE8=Hurlent Les Loups
TTITLE9=Zen
TTITLE10=Besoin D'elles
TTITLE11=Zooloutro
TTITLE12=Need Something
EXTD=
EXTT0=
EXTT1=
EXTT2=
EXTT3=
EXTT4=
EXTT5=
EXTT6=
EXTT7=
EXTT8=
EXTT9=
EXTT10=
EXTT11=
EXTT12=
PLAYORDER=
